<mxfile host="app.diagrams.net" agent="Mozilla/5.0 (Windows NT 10.0; Win64; x64) AppleWebKit/537.36 (KHTML, like Gecko) Chrome/134.0.0.0 Safari/537.36" version="26.1.0">
  <diagram name="Page-1" id="0EpwGjM8e4kSp_nt2-hy">
    <mxGraphModel dx="1593" dy="858" grid="1" gridSize="10" guides="1" tooltips="1" connect="1" arrows="1" fold="1" page="1" pageScale="1" pageWidth="850" pageHeight="1100" math="0" shadow="0">
      <root>
        <mxCell id="0" />
        <mxCell id="1" parent="0" />
        <mxCell id="xZG8g1dK-9rmGVhBD8su-1" value="HỆ THỐNG" style="ellipse;whiteSpace=wrap;html=1;" vertex="1" parent="1">
          <mxGeometry x="340" y="350" width="190" height="110" as="geometry" />
        </mxCell>
        <mxCell id="xZG8g1dK-9rmGVhBD8su-2" value="Khách hàng" style="rounded=0;whiteSpace=wrap;html=1;" vertex="1" parent="1">
          <mxGeometry x="20" y="580" width="140" height="160" as="geometry" />
        </mxCell>
        <mxCell id="xZG8g1dK-9rmGVhBD8su-5" value="Nhân viên Văn phòng" style="rounded=0;whiteSpace=wrap;html=1;" vertex="1" parent="1">
          <mxGeometry x="210" y="40" width="120" height="60" as="geometry" />
        </mxCell>
        <mxCell id="xZG8g1dK-9rmGVhBD8su-6" value="Quản lý sản xuất" style="rounded=0;whiteSpace=wrap;html=1;" vertex="1" parent="1">
          <mxGeometry x="590" y="110" width="120" height="60" as="geometry" />
        </mxCell>
        <mxCell id="xZG8g1dK-9rmGVhBD8su-8" value="Thêm khách hàng mới" style="endArrow=classic;startArrow=classic;html=1;rounded=0;exitX=1.01;exitY=0.117;exitDx=0;exitDy=0;entryX=0.388;entryY=1.008;entryDx=0;entryDy=0;entryPerimeter=0;exitPerimeter=0;" edge="1" parent="1" source="xZG8g1dK-9rmGVhBD8su-2" target="xZG8g1dK-9rmGVhBD8su-1">
          <mxGeometry width="50" height="50" relative="1" as="geometry">
            <mxPoint x="400" y="420" as="sourcePoint" />
            <mxPoint x="450" y="370" as="targetPoint" />
            <Array as="points">
              <mxPoint x="414" y="599" />
            </Array>
          </mxGeometry>
        </mxCell>
        <mxCell id="xZG8g1dK-9rmGVhBD8su-9" value="Ghi nhận đơn hàng" style="endArrow=classic;startArrow=classic;html=1;rounded=0;exitX=1;exitY=0.25;exitDx=0;exitDy=0;entryX=0.442;entryY=1.013;entryDx=0;entryDy=0;entryPerimeter=0;" edge="1" parent="1" source="xZG8g1dK-9rmGVhBD8su-2" target="xZG8g1dK-9rmGVhBD8su-1">
          <mxGeometry x="-0.3142" y="-2" width="50" height="50" relative="1" as="geometry">
            <mxPoint x="400" y="420" as="sourcePoint" />
            <mxPoint x="450" y="370" as="targetPoint" />
            <Array as="points">
              <mxPoint x="424" y="620" />
            </Array>
            <mxPoint as="offset" />
          </mxGeometry>
        </mxCell>
        <mxCell id="xZG8g1dK-9rmGVhBD8su-10" value="Nhận hóa đơn từ hệ thống" style="endArrow=classic;startArrow=classic;html=1;rounded=0;entryX=0.535;entryY=1.019;entryDx=0;entryDy=0;exitX=1;exitY=0.5;exitDx=0;exitDy=0;entryPerimeter=0;" edge="1" parent="1" source="xZG8g1dK-9rmGVhBD8su-2" target="xZG8g1dK-9rmGVhBD8su-1">
          <mxGeometry x="-0.182" width="50" height="50" relative="1" as="geometry">
            <mxPoint x="143" y="610" as="sourcePoint" />
            <mxPoint x="440" y="460" as="targetPoint" />
            <Array as="points">
              <mxPoint x="442" y="660" />
            </Array>
            <mxPoint as="offset" />
          </mxGeometry>
        </mxCell>
        <mxCell id="xZG8g1dK-9rmGVhBD8su-18" value="Nhập mã khách hàng" style="endArrow=classic;startArrow=classic;html=1;rounded=0;exitX=0.574;exitY=0.025;exitDx=0;exitDy=0;exitPerimeter=0;entryX=0.109;entryY=0.83;entryDx=0;entryDy=0;entryPerimeter=0;" edge="1" parent="1" source="xZG8g1dK-9rmGVhBD8su-2" target="xZG8g1dK-9rmGVhBD8su-1">
          <mxGeometry x="0.2738" width="50" height="50" relative="1" as="geometry">
            <mxPoint x="170" y="360" as="sourcePoint" />
            <mxPoint x="220" y="310" as="targetPoint" />
            <Array as="points">
              <mxPoint x="100" y="440" />
            </Array>
            <mxPoint as="offset" />
          </mxGeometry>
        </mxCell>
        <mxCell id="xZG8g1dK-9rmGVhBD8su-25" value="Ghi nhận đơn&amp;nbsp;" style="endArrow=classic;startArrow=classic;html=1;rounded=0;entryX=0.25;entryY=1;entryDx=0;entryDy=0;exitX=0.319;exitY=0.048;exitDx=0;exitDy=0;exitPerimeter=0;" edge="1" parent="1" source="xZG8g1dK-9rmGVhBD8su-1" target="xZG8g1dK-9rmGVhBD8su-5">
          <mxGeometry x="0.3725" width="50" height="50" relative="1" as="geometry">
            <mxPoint x="290" y="400" as="sourcePoint" />
            <mxPoint x="340" y="350" as="targetPoint" />
            <Array as="points">
              <mxPoint x="400" y="140" />
              <mxPoint x="240" y="140" />
            </Array>
            <mxPoint as="offset" />
          </mxGeometry>
        </mxCell>
        <mxCell id="xZG8g1dK-9rmGVhBD8su-26" value="Thêm khách&amp;nbsp;" style="endArrow=classic;startArrow=classic;html=1;rounded=0;entryX=0.5;entryY=1;entryDx=0;entryDy=0;exitX=0.467;exitY=-0.018;exitDx=0;exitDy=0;exitPerimeter=0;" edge="1" parent="1" source="xZG8g1dK-9rmGVhBD8su-1" target="xZG8g1dK-9rmGVhBD8su-5">
          <mxGeometry x="0.5226" width="50" height="50" relative="1" as="geometry">
            <mxPoint x="440" y="340" as="sourcePoint" />
            <mxPoint x="340" y="350" as="targetPoint" />
            <Array as="points">
              <mxPoint x="429" y="120" />
              <mxPoint x="270" y="120" />
            </Array>
            <mxPoint as="offset" />
          </mxGeometry>
        </mxCell>
        <mxCell id="xZG8g1dK-9rmGVhBD8su-27" value="&lt;div&gt;Chỉnh sửa đơn hàng&lt;/div&gt;" style="endArrow=classic;startArrow=classic;html=1;rounded=0;exitX=0.111;exitY=1.058;exitDx=0;exitDy=0;exitPerimeter=0;entryX=0.218;entryY=0.106;entryDx=0;entryDy=0;entryPerimeter=0;" edge="1" parent="1" source="xZG8g1dK-9rmGVhBD8su-5" target="xZG8g1dK-9rmGVhBD8su-1">
          <mxGeometry x="-0.3468" width="50" height="50" relative="1" as="geometry">
            <mxPoint x="290" y="400" as="sourcePoint" />
            <mxPoint x="340" y="350" as="targetPoint" />
            <Array as="points">
              <mxPoint x="223" y="160" />
              <mxPoint x="380" y="160" />
            </Array>
            <mxPoint as="offset" />
          </mxGeometry>
        </mxCell>
        <mxCell id="xZG8g1dK-9rmGVhBD8su-32" value="Xem danh sách đơn hàng" style="endArrow=classic;startArrow=classic;html=1;rounded=0;exitX=0.984;exitY=0.387;exitDx=0;exitDy=0;exitPerimeter=0;entryX=0.5;entryY=1;entryDx=0;entryDy=0;" edge="1" parent="1" source="xZG8g1dK-9rmGVhBD8su-1" target="xZG8g1dK-9rmGVhBD8su-6">
          <mxGeometry x="-0.3588" width="50" height="50" relative="1" as="geometry">
            <mxPoint x="290" y="400" as="sourcePoint" />
            <mxPoint x="340" y="350" as="targetPoint" />
            <Array as="points">
              <mxPoint x="527" y="340" />
              <mxPoint x="650" y="340" />
            </Array>
            <mxPoint as="offset" />
          </mxGeometry>
        </mxCell>
        <mxCell id="xZG8g1dK-9rmGVhBD8su-33" value="In,gửi hóa đơn" style="endArrow=classic;startArrow=classic;html=1;rounded=0;entryX=1;entryY=0.633;entryDx=0;entryDy=0;exitX=0.579;exitY=0;exitDx=0;exitDy=0;exitPerimeter=0;entryPerimeter=0;" edge="1" parent="1" source="xZG8g1dK-9rmGVhBD8su-1" target="xZG8g1dK-9rmGVhBD8su-5">
          <mxGeometry x="0.6915" width="50" height="50" relative="1" as="geometry">
            <mxPoint x="439" y="358" as="sourcePoint" />
            <mxPoint x="280" y="110" as="targetPoint" />
            <Array as="points">
              <mxPoint x="450" y="130" />
              <mxPoint x="450" y="80" />
            </Array>
            <mxPoint as="offset" />
          </mxGeometry>
        </mxCell>
        <mxCell id="xZG8g1dK-9rmGVhBD8su-34" value="Yêu cầu nhập mã khách hàng" style="endArrow=classic;html=1;rounded=0;entryX=0.4;entryY=0;entryDx=0;entryDy=0;entryPerimeter=0;exitX=0.037;exitY=0.627;exitDx=0;exitDy=0;exitPerimeter=0;" edge="1" parent="1" source="xZG8g1dK-9rmGVhBD8su-1" target="xZG8g1dK-9rmGVhBD8su-2">
          <mxGeometry x="-0.4506" y="1" width="50" height="50" relative="1" as="geometry">
            <mxPoint x="400" y="440" as="sourcePoint" />
            <mxPoint x="450" y="390" as="targetPoint" />
            <Array as="points">
              <mxPoint x="77" y="420" />
            </Array>
            <mxPoint as="offset" />
          </mxGeometry>
        </mxCell>
        <mxCell id="xZG8g1dK-9rmGVhBD8su-35" value="Hiển thị thông tin khách hàng" style="endArrow=classic;startArrow=classic;html=1;rounded=0;exitX=0.25;exitY=0;exitDx=0;exitDy=0;entryX=0.021;entryY=0.409;entryDx=0;entryDy=0;entryPerimeter=0;" edge="1" parent="1" source="xZG8g1dK-9rmGVhBD8su-2" target="xZG8g1dK-9rmGVhBD8su-1">
          <mxGeometry x="0.2237" width="50" height="50" relative="1" as="geometry">
            <mxPoint x="400" y="440" as="sourcePoint" />
            <mxPoint x="450" y="390" as="targetPoint" />
            <Array as="points">
              <mxPoint x="55" y="395" />
            </Array>
            <mxPoint as="offset" />
          </mxGeometry>
        </mxCell>
        <mxCell id="xZG8g1dK-9rmGVhBD8su-36" value="Chọn hương vị, kích thước số lượng mong muốn" style="endArrow=classic;startArrow=classic;html=1;rounded=0;entryX=0.312;entryY=0.958;entryDx=0;entryDy=0;entryPerimeter=0;exitX=0.891;exitY=0.039;exitDx=0;exitDy=0;exitPerimeter=0;" edge="1" parent="1" source="xZG8g1dK-9rmGVhBD8su-2" target="xZG8g1dK-9rmGVhBD8su-1">
          <mxGeometry x="0.2504" width="50" height="50" relative="1" as="geometry">
            <mxPoint x="210" y="370" as="sourcePoint" />
            <mxPoint x="260" y="320" as="targetPoint" />
            <Array as="points">
              <mxPoint x="145" y="480" />
              <mxPoint x="400" y="480" />
            </Array>
            <mxPoint as="offset" />
          </mxGeometry>
        </mxCell>
        <mxCell id="xZG8g1dK-9rmGVhBD8su-39" value="HIển thị thông tin sản phẩm" style="endArrow=classic;startArrow=classic;html=1;rounded=0;exitX=0.058;exitY=0.019;exitDx=0;exitDy=0;exitPerimeter=0;entryX=0;entryY=0;entryDx=0;entryDy=0;" edge="1" parent="1" source="xZG8g1dK-9rmGVhBD8su-2" target="xZG8g1dK-9rmGVhBD8su-1">
          <mxGeometry x="0.3233" width="50" height="50" relative="1" as="geometry">
            <mxPoint x="180" y="360" as="sourcePoint" />
            <mxPoint x="230" y="310" as="targetPoint" />
            <Array as="points">
              <mxPoint x="30" y="366" />
            </Array>
            <mxPoint as="offset" />
          </mxGeometry>
        </mxCell>
        <mxCell id="xZG8g1dK-9rmGVhBD8su-40" value="Gửi yêu cầu đặt hàng" style="endArrow=classic;startArrow=classic;html=1;rounded=0;exitX=0.701;exitY=0.012;exitDx=0;exitDy=0;exitPerimeter=0;entryX=0.306;entryY=0.968;entryDx=0;entryDy=0;entryPerimeter=0;" edge="1" parent="1" source="xZG8g1dK-9rmGVhBD8su-2" target="xZG8g1dK-9rmGVhBD8su-1">
          <mxGeometry x="0.2738" width="50" height="50" relative="1" as="geometry">
            <mxPoint x="110" y="594" as="sourcePoint" />
            <mxPoint x="371" y="451" as="targetPoint" />
            <Array as="points">
              <mxPoint x="120" y="460" />
            </Array>
            <mxPoint as="offset" />
          </mxGeometry>
        </mxCell>
        <mxCell id="xZG8g1dK-9rmGVhBD8su-43" value="Xác nhận đơn hàng,tính chi phí" style="endArrow=classic;startArrow=classic;html=1;rounded=0;entryX=0.668;entryY=1.018;entryDx=0;entryDy=0;entryPerimeter=0;exitX=1.002;exitY=0.644;exitDx=0;exitDy=0;exitPerimeter=0;" edge="1" parent="1" source="xZG8g1dK-9rmGVhBD8su-2" target="xZG8g1dK-9rmGVhBD8su-1">
          <mxGeometry x="-0.2431" width="50" height="50" relative="1" as="geometry">
            <mxPoint x="180" y="470" as="sourcePoint" />
            <mxPoint x="230" y="420" as="targetPoint" />
            <Array as="points">
              <mxPoint x="467" y="683" />
            </Array>
            <mxPoint as="offset" />
          </mxGeometry>
        </mxCell>
        <mxCell id="xZG8g1dK-9rmGVhBD8su-45" value="Tạo hóa đơn tự động&amp;nbsp;" style="endArrow=classic;html=1;rounded=0;entryX=1;entryY=0.25;entryDx=0;entryDy=0;exitX=0.744;exitY=0.099;exitDx=0;exitDy=0;exitPerimeter=0;" edge="1" parent="1" source="xZG8g1dK-9rmGVhBD8su-1" target="xZG8g1dK-9rmGVhBD8su-5">
          <mxGeometry x="0.6498" width="50" height="50" relative="1" as="geometry">
            <mxPoint x="180" y="470" as="sourcePoint" />
            <mxPoint x="230" y="420" as="targetPoint" />
            <Array as="points">
              <mxPoint x="481" y="55" />
            </Array>
            <mxPoint as="offset" />
          </mxGeometry>
        </mxCell>
        <mxCell id="xZG8g1dK-9rmGVhBD8su-46" value="Admin" style="rounded=0;whiteSpace=wrap;html=1;" vertex="1" parent="1">
          <mxGeometry x="720" y="260" width="120" height="60" as="geometry" />
        </mxCell>
        <mxCell id="xZG8g1dK-9rmGVhBD8su-47" value="Quản lí tài khoản" style="endArrow=classic;startArrow=classic;html=1;rounded=0;exitX=0.086;exitY=1.07;exitDx=0;exitDy=0;exitPerimeter=0;" edge="1" parent="1" source="xZG8g1dK-9rmGVhBD8su-46">
          <mxGeometry width="50" height="50" relative="1" as="geometry">
            <mxPoint x="1080" y="650" as="sourcePoint" />
            <mxPoint x="520" y="400" as="targetPoint" />
            <Array as="points">
              <mxPoint x="730" y="400" />
            </Array>
          </mxGeometry>
        </mxCell>
        <mxCell id="xZG8g1dK-9rmGVhBD8su-48" value="Quản lý" style="rounded=0;whiteSpace=wrap;html=1;" vertex="1" parent="1">
          <mxGeometry x="690" y="480" width="120" height="60" as="geometry" />
        </mxCell>
        <mxCell id="xZG8g1dK-9rmGVhBD8su-49" value="Quản lý nhân viên" style="endArrow=classic;startArrow=classic;html=1;rounded=0;entryX=0.5;entryY=1;entryDx=0;entryDy=0;exitX=0.785;exitY=0.947;exitDx=0;exitDy=0;exitPerimeter=0;" edge="1" parent="1" target="xZG8g1dK-9rmGVhBD8su-48" source="xZG8g1dK-9rmGVhBD8su-1">
          <mxGeometry x="0.1706" width="50" height="50" relative="1" as="geometry">
            <mxPoint x="614" y="750" as="sourcePoint" />
            <mxPoint x="550" y="740" as="targetPoint" />
            <Array as="points">
              <mxPoint x="490" y="560" />
              <mxPoint x="750" y="560" />
            </Array>
            <mxPoint as="offset" />
          </mxGeometry>
        </mxCell>
        <mxCell id="xZG8g1dK-9rmGVhBD8su-51" value="Thiết lập chính sách và quản lý hệ thống" style="endArrow=classic;startArrow=classic;html=1;rounded=0;entryX=0.967;entryY=0.705;entryDx=0;entryDy=0;entryPerimeter=0;exitX=0.447;exitY=0.978;exitDx=0;exitDy=0;exitPerimeter=0;" edge="1" parent="1" source="xZG8g1dK-9rmGVhBD8su-46" target="xZG8g1dK-9rmGVhBD8su-1">
          <mxGeometry x="0.2185" width="50" height="50" relative="1" as="geometry">
            <mxPoint x="792" y="330" as="sourcePoint" />
            <mxPoint x="1022" y="618" as="targetPoint" />
            <Array as="points">
              <mxPoint x="774" y="428" />
            </Array>
            <mxPoint as="offset" />
          </mxGeometry>
        </mxCell>
        <mxCell id="xZG8g1dK-9rmGVhBD8su-52" value="Kiểm duyệt sản phẩm trước khi đăng bán" style="endArrow=classic;startArrow=classic;html=1;rounded=0;exitX=0.75;exitY=1;exitDx=0;exitDy=0;entryX=1;entryY=1;entryDx=0;entryDy=0;" edge="1" parent="1" source="xZG8g1dK-9rmGVhBD8su-46" target="xZG8g1dK-9rmGVhBD8su-1">
          <mxGeometry x="0.1884" y="-4" width="50" height="50" relative="1" as="geometry">
            <mxPoint x="840" y="580" as="sourcePoint" />
            <mxPoint x="1041" y="601" as="targetPoint" />
            <Array as="points">
              <mxPoint x="810" y="430" />
              <mxPoint x="810" y="444" />
            </Array>
            <mxPoint as="offset" />
          </mxGeometry>
        </mxCell>
        <mxCell id="xZG8g1dK-9rmGVhBD8su-55" value="Giám sát hoạt động" style="endArrow=classic;startArrow=classic;html=1;rounded=0;exitX=1;exitY=1;exitDx=0;exitDy=0;entryX=0;entryY=0.5;entryDx=0;entryDy=0;" edge="1" parent="1" target="xZG8g1dK-9rmGVhBD8su-48" source="xZG8g1dK-9rmGVhBD8su-1">
          <mxGeometry x="0.2132" width="50" height="50" relative="1" as="geometry">
            <mxPoint x="580" y="727" as="sourcePoint" />
            <mxPoint x="440" y="720" as="targetPoint" />
            <Array as="points">
              <mxPoint x="502" y="510" />
              <mxPoint x="650" y="510" />
            </Array>
            <mxPoint as="offset" />
          </mxGeometry>
        </mxCell>
        <mxCell id="xZG8g1dK-9rmGVhBD8su-56" value="Theo dõi báo cáo,thống kế" style="endArrow=classic;startArrow=classic;html=1;rounded=0;exitX=0.715;exitY=0.968;exitDx=0;exitDy=0;exitPerimeter=0;entryX=0.75;entryY=1;entryDx=0;entryDy=0;" edge="1" parent="1" target="xZG8g1dK-9rmGVhBD8su-48" source="xZG8g1dK-9rmGVhBD8su-1">
          <mxGeometry x="0.166" width="50" height="50" relative="1" as="geometry">
            <mxPoint x="627" y="763" as="sourcePoint" />
            <mxPoint x="440" y="720" as="targetPoint" />
            <Array as="points">
              <mxPoint x="480" y="600" />
              <mxPoint x="780" y="600" />
            </Array>
            <mxPoint as="offset" />
          </mxGeometry>
        </mxCell>
        <mxCell id="xZG8g1dK-9rmGVhBD8su-57" value="Guest" style="rounded=0;whiteSpace=wrap;html=1;" vertex="1" parent="1">
          <mxGeometry x="40" y="160" width="120" height="60" as="geometry" />
        </mxCell>
        <mxCell id="xZG8g1dK-9rmGVhBD8su-58" value="Xem danh sách sản phẩm ,thông tin cửa hàng" style="endArrow=classic;startArrow=classic;html=1;rounded=0;exitX=0.376;exitY=1.012;exitDx=0;exitDy=0;exitPerimeter=0;" edge="1" parent="1" source="xZG8g1dK-9rmGVhBD8su-57">
          <mxGeometry x="-0.1877" width="50" height="50" relative="1" as="geometry">
            <mxPoint x="250" y="260" as="sourcePoint" />
            <mxPoint x="370" y="370" as="targetPoint" />
            <Array as="points">
              <mxPoint x="85" y="270" />
              <mxPoint x="200" y="265" />
              <mxPoint x="370" y="265" />
            </Array>
            <mxPoint as="offset" />
          </mxGeometry>
        </mxCell>
        <mxCell id="xZG8g1dK-9rmGVhBD8su-59" value="Cần đăng ký tài khoản để đặt hàng" style="endArrow=classic;html=1;rounded=0;entryX=0.25;entryY=1;entryDx=0;entryDy=0;exitX=0.113;exitY=0.2;exitDx=0;exitDy=0;exitPerimeter=0;" edge="1" parent="1" target="xZG8g1dK-9rmGVhBD8su-57" source="xZG8g1dK-9rmGVhBD8su-1">
          <mxGeometry width="50" height="50" relative="1" as="geometry">
            <mxPoint x="382" y="279" as="sourcePoint" />
            <mxPoint x="380" y="210" as="targetPoint" />
            <Array as="points">
              <mxPoint x="360" y="280" />
              <mxPoint x="230" y="280" />
              <mxPoint x="70" y="280" />
            </Array>
          </mxGeometry>
        </mxCell>
      </root>
    </mxGraphModel>
  </diagram>
</mxfile>
